<?xml version="1.0" encoding="utf-8"?>
<!-- Generator: Adobe Illustrator 18.0.0, SVG Export Plug-In . SVG Version: 6.00 Build 0)  -->
<!DOCTYPE svg PUBLIC "-//W3C//DTD SVG 1.1//EN" "http://www.w3.org/Graphics/SVG/1.1/DTD/svg11.dtd">
<svg version="1.1" xmlns="http://www.w3.org/2000/svg" xmlns:xlink="http://www.w3.org/1999/xlink" x="0px" y="0px"
	 viewBox="0 0 1600 900" enable-background="new 0 0 1600 900" xml:space="preserve">
<g id="Background">
	<rect x="0" y="0" fill="#EEEEEE" width="1600" height="900"/>
</g>
<g id="Artwork">
	<g>
		<path fill="none" stroke="#F47C20" stroke-width="15" stroke-linecap="round" stroke-miterlimit="10" d="M585.3,270.8v96.4
			c0,9,7.3,16.3,16.3,16.3h372.5"/>
		<path fill="none" stroke="#F47C20" stroke-width="15" stroke-miterlimit="10" d="M364.2,108.9H569c9,0,16.3,7.3,16.3,16.3v111"/>
		<path fill="none" stroke="#80DEEA" stroke-width="15" stroke-linecap="round" stroke-miterlimit="10" d="M528.1,778h41
			c9,0,16.3-7.3,16.3-16.3v-242c0-9,7.3-16.3,16.3-16.3h372.5"/>
		<line fill="none" stroke="#80DEEA" stroke-width="15" stroke-miterlimit="10" x1="364.2" y1="778" x2="495.9" y2="778"/>
		<line fill="none" stroke="#F6BE1A" stroke-width="15" stroke-miterlimit="10" x1="676.4" y1="444.1" x2="364.2" y2="444.1"/>
		
			<line fill="none" stroke="#F6BE1A" stroke-width="15" stroke-linecap="round" stroke-miterlimit="10" x1="965.4" y1="444.1" x2="715.8" y2="444.1"/>
		<g>
			<defs>
				<rect id="SVGID_7_" x="0" y="0.7" width="645.3" height="899.3"/>
			</defs>
			<clipPath id="SVGID_2_">
				<use xlink:href="#SVGID_7_"  overflow="visible"/>
			</clipPath>
			<g clip-path="url(#SVGID_2_)">
				<path fill="#F6BE1A" d="M408.4,499.5L391,408.4l-0.2,0.1c-0.6-2.3-1.4-4.5-2.4-6.8c-9.7-22.4-34.9-34.3-58.4-27.4
					c-3.1,0.9-6,2.1-8.7,3.5c-4.6,2.4-9.6,3.7-14.7,3.7h-72.1c-4.9,0-9.6-1.3-13.9-3.6c-1.5-0.8-3.1-1.5-4.7-2.2
					c-25-9.9-53.3,2.4-63.2,27.4c-0.7,1.8-1.3,3.6-1.8,5.4l-0.2-0.1l-17.5,91.1c-3.2,16.8,6,29.7,18.5,35.2c0,0,0.1,0,0.1,0.1
					c0.4,0.2,0.7,0.3,1.1,0.5c0.1,0,0.2,0.1,0.2,0.1c0.3,0.1,0.7,0.3,1,0.4c0.1,0,0.2,0.1,0.3,0.1c0.3,0.1,0.7,0.2,1,0.3
					c0.1,0,0.2,0.1,0.3,0.1c0.3,0.1,0.6,0.2,1,0.3c0.1,0,0.2,0.1,0.4,0.1c0.3,0.1,0.6,0.2,1,0.2c0.1,0,0.3,0.1,0.4,0.1
					c0.3,0.1,0.6,0.1,0.9,0.2c0.1,0,0.3,0,0.4,0.1c0.3,0,0.6,0.1,0.9,0.1c0.1,0,0.3,0,0.4,0.1c0.3,0,0.6,0.1,0.9,0.1
					c0.1,0,0.3,0,0.4,0c0.3,0,0.6,0,1,0.1c0.1,0,0.3,0,0.4,0c0.3,0,0.7,0,1,0c0.1,0,0.3,0,0.4,0c0.3,0,0.7,0,1,0c0.1,0,0.2,0,0.4,0
					c0.4,0,0.7,0,1.1-0.1c0.1,0,0.2,0,0.3,0c0.4,0,0.9-0.1,1.3-0.2c0,0,0.1,0,0.1,0c0.9-0.1,1.8-0.3,2.7-0.5c0.1,0,0.1,0,0.2,0
					c0.4-0.1,0.8-0.2,1.2-0.3c0.1,0,0.3-0.1,0.4-0.1c0.3-0.1,0.6-0.2,0.9-0.3c0.2-0.1,0.3-0.1,0.5-0.2c0.3-0.1,0.6-0.2,0.8-0.3
					c0.2-0.1,0.3-0.1,0.5-0.2c0.3-0.1,0.5-0.2,0.8-0.3c0.2-0.1,0.4-0.2,0.5-0.2c0.2-0.1,0.5-0.2,0.7-0.4c0.2-0.1,0.4-0.2,0.5-0.3
					c0.2-0.1,0.5-0.3,0.7-0.4c0.2-0.1,0.4-0.2,0.5-0.3c0.2-0.1,0.5-0.3,0.7-0.4c0.2-0.1,0.4-0.2,0.5-0.3c0.2-0.1,0.4-0.3,0.7-0.5
					c0.2-0.1,0.4-0.3,0.5-0.4c0.2-0.2,0.4-0.3,0.6-0.5c0.2-0.1,0.3-0.3,0.5-0.4c0.2-0.2,0.4-0.3,0.6-0.5c0.2-0.1,0.3-0.3,0.5-0.4
					c0.2-0.2,0.4-0.4,0.6-0.6c0.2-0.2,0.3-0.3,0.5-0.5c0.2-0.2,0.4-0.4,0.6-0.6c0.2-0.2,0.3-0.3,0.5-0.5c0.2-0.2,0.4-0.4,0.6-0.7
					c0.1-0.2,0.3-0.3,0.4-0.5c0.2-0.2,0.4-0.5,0.6-0.7c0.1-0.2,0.3-0.3,0.4-0.5c0.2-0.3,0.4-0.6,0.6-0.9c0.1-0.2,0.2-0.3,0.3-0.5
					c0.3-0.4,0.6-0.9,0.9-1.3c0,0,0,0,0-0.1l32.1-50.9c5.5-8.7,15.1-14,25.3-14h43.8c10.3,0,19.9,5.3,25.3,14l32.1,50.9
					c0.3,0.5,0.6,0.9,0.9,1.4c0.1,0.1,0.2,0.3,0.3,0.4c0.2,0.3,0.4,0.6,0.7,0.9c0.1,0.2,0.3,0.3,0.4,0.5c0.2,0.3,0.4,0.5,0.6,0.8
					c0.1,0.2,0.3,0.3,0.4,0.5c0.2,0.2,0.4,0.5,0.6,0.7c0.2,0.2,0.3,0.3,0.5,0.5c0.2,0.2,0.4,0.4,0.6,0.6c0.2,0.2,0.3,0.3,0.5,0.5
					c0.2,0.2,0.4,0.4,0.6,0.6c0.2,0.1,0.3,0.3,0.5,0.4c0.2,0.2,0.4,0.4,0.6,0.5c0.2,0.1,0.3,0.3,0.5,0.4c0.2,0.2,0.4,0.3,0.7,0.5
					c0.2,0.1,0.4,0.3,0.5,0.4c0.2,0.2,0.4,0.3,0.7,0.5c0.2,0.1,0.4,0.2,0.5,0.3c0.2,0.1,0.5,0.3,0.7,0.4c0.2,0.1,0.4,0.2,0.5,0.3
					c0.2,0.1,0.5,0.3,0.7,0.4c0.2,0.1,0.4,0.2,0.5,0.3c0.2,0.1,0.5,0.2,0.8,0.4c0.2,0.1,0.3,0.2,0.5,0.2c0.3,0.1,0.5,0.2,0.8,0.3
					c0.2,0.1,0.3,0.1,0.5,0.2c0.3,0.1,0.6,0.2,0.8,0.3c0.2,0.1,0.3,0.1,0.5,0.2c0.3,0.1,0.6,0.2,0.9,0.3c0.1,0,0.2,0.1,0.4,0.1
					c0.4,0.1,0.8,0.2,1.2,0.3c0,0,0.1,0,0.1,0c0.9,0.2,1.8,0.4,2.7,0.5c0,0,0.1,0,0.1,0c0.4,0.1,0.8,0.1,1.2,0.1c0.1,0,0.2,0,0.3,0
					c0.4,0,0.7,0.1,1.1,0.1c0.1,0,0.2,0,0.4,0c0.3,0,0.7,0,1,0c0.1,0,0.3,0,0.4,0c0.3,0,0.6,0,1,0c0.1,0,0.3,0,0.4,0
					c0.3,0,0.6,0,0.9-0.1c0.1,0,0.3,0,0.4,0c0.3,0,0.6-0.1,0.9-0.1c0.1,0,0.3,0,0.4-0.1c0.3,0,0.6-0.1,0.9-0.1c0.1,0,0.3,0,0.4-0.1
					c0.3-0.1,0.6-0.1,0.9-0.2c0.1,0,0.3-0.1,0.4-0.1c0.3-0.1,0.6-0.1,0.9-0.2c0.1,0,0.3-0.1,0.4-0.1c0.3-0.1,0.6-0.2,1-0.3
					c0.1,0,0.2-0.1,0.4-0.1c0.3-0.1,0.7-0.2,1-0.3c0.1,0,0.2-0.1,0.3-0.1c0.3-0.1,0.7-0.2,1-0.4c0.1,0,0.2-0.1,0.3-0.1
					c0.4-0.1,0.7-0.3,1.1-0.4c0.1,0,0.1,0,0.2-0.1C402.4,529.3,411.7,516.3,408.4,499.5z"/>
				<g>
					<circle fill="#F47C20" cx="343.8" cy="402.6" r="9.3"/>
					<path fill="#FAA628" d="M227,447.3c6.3-6.9,10.2-16.2,10.2-26.3l0,0h0c0-21.6-17.5-39.1-39.1-39.1s-39.1,17.5-39.1,39.1h0l0,0
						c0,21.6,17.5,39.1,39.1,39.1c5.4,0,10.5-1.1,15.2-3.1c0.6-0.2,1.2-0.5,1.7-0.8c1.1-0.5,2.2-1.2,3.3-1.8
						C221.5,452.5,224.5,450.1,227,447.3z M188.4,448.3v-17.7h-17.7V421l0,0v-9.6h17.7v-17.7h19.2v17.7h17.7v9.6h0v9.6h0h-17.7v17.7
						H188.4L188.4,448.3z"/>
					<rect x="246.8" y="415.7" fill="#F47C20" width="19.8" height="9.6"/>
					<rect x="275.2" y="415.7" fill="#F47C20" width="19.8" height="9.6"/>
					<path fill="#FAA628" d="M304.7,421c0,8.1,2.5,15.6,6.7,21.9c7,10.4,18.9,17.2,32.4,17.2c2.7,0,5.3-0.3,7.9-0.8
						c0.6-0.1,1.3-0.3,1.9-0.4c1.9-0.5,3.7-1.1,5.4-1.8c0.6-0.2,1.2-0.5,1.7-0.8c4-1.9,7.6-4.5,10.7-7.6c0.4-0.4,0.9-0.9,1.3-1.4
						c1.3-1.4,2.4-2.9,3.5-4.4c4.2-6.2,6.7-13.8,6.7-21.9l0,0l0,0c0-21.6-17.5-39.1-39.1-39.1C322.2,381.9,304.7,399.4,304.7,421
						L304.7,421L304.7,421z M334.5,439.5c0-4.8,3.6-8.7,8.3-9.2c0.3,0,0.6,0,0.9,0c0.3,0,0.6,0,0.9,0c4.7,0.5,8.3,4.4,8.3,9.2
						c0,5.1-4.2,9.3-9.3,9.3C338.6,448.8,334.5,444.6,334.5,439.5z M362.2,411.8c5.1,0,9.3,4.2,9.3,9.3h0l0,0c0,3.8-2.3,7.1-5.7,8.5
						c-0.6,0.2-1.1,0.4-1.7,0.5c-0.6,0.1-1.2,0.2-1.9,0.2c-2.6,0-4.9-1-6.6-2.7s-2.7-4-2.7-6.6l0,0l0,0
						C353,415.9,357.1,411.8,362.2,411.8z M343.8,393.3c5.1,0,9.3,4.2,9.3,9.3s-4.2,9.3-9.3,9.3c-5.1,0-9.3-4.2-9.3-9.3
						S338.6,393.3,343.8,393.3z M325.3,411.8c5.1,0,9.3,4.2,9.3,9.3l0,0l0,0c0,1.3-0.3,2.5-0.7,3.6c-0.2,0.6-0.5,1.1-0.9,1.6
						c-0.2,0.2-0.3,0.5-0.5,0.7c-1.7,2.1-4.3,3.4-7.2,3.4c-5.1,0-9.3-4.2-9.3-9.3l0,0h0C316,415.9,320.2,411.8,325.3,411.8z"/>
					<polygon fill="#F47C20" points="207.6,430.6 225.3,430.6 225.3,430.6 225.3,421 225.3,421 225.3,411.4 207.6,411.4 
						207.6,393.7 188.4,393.7 188.4,411.4 170.7,411.4 170.7,421 170.7,421 170.7,430.6 188.4,430.6 188.4,448.3 188.4,448.3 
						207.6,448.3 					"/>
					<path fill="#F47C20" d="M343.8,448.8c5.1,0,9.3-4.2,9.3-9.3c0-4.8-3.6-8.7-8.3-9.2c-0.3,0-0.6,0-0.9,0c-0.3,0-0.6,0-0.9,0
						c-4.7,0.5-8.3,4.4-8.3,9.2C334.5,444.6,338.6,448.8,343.8,448.8z"/>
					<path fill="#F47C20" d="M353,421L353,421c0,2.6,1,4.9,2.7,6.6s4,2.7,6.6,2.7c0.6,0,1.3-0.1,1.9-0.2c0.6-0.1,1.2-0.3,1.7-0.5
						c3.3-1.4,5.7-4.7,5.7-8.5l0,0h0c0-5.1-4.2-9.3-9.3-9.3C357.1,411.8,353,415.9,353,421L353,421z"/>
					<path fill="#F47C20" d="M316,421c0,5.1,4.2,9.3,9.3,9.3c2.9,0,5.5-1.3,7.2-3.4c0.2-0.2,0.4-0.5,0.5-0.7c0.3-0.5,0.6-1,0.9-1.6
						c0.5-1.1,0.7-2.3,0.7-3.6l0,0l0,0c0-5.1-4.2-9.3-9.3-9.3C320.2,411.8,316,415.9,316,421L316,421L316,421z"/>
				</g>
			</g>
			<g clip-path="url(#SVGID_2_)">
				<path fill="#80DEEA" d="M190.9,574.7c-42.2,0-54.2,17.4-54.2,42.1v457.7c0,24.6,18.9,42.3,42.3,42.3c0,0,76.2,1.5,94.4,1.5
					c18.2,0,86.7-1.5,86.7-1.5c23.4,0,42.3-17.6,42.3-42.3V669.7l0-52.3c0-24.6-12-42.1-54.2-42.1L190.9,574.7z"/>
				<rect x="148.2" y="633.5" fill="#FFFFFF" width="242.7" height="427.6"/>
				<circle fill="#00BCD4" cx="333.9" cy="595.7" r="6.5"/>
				<circle fill="#00BCD4" cx="233" cy="595.7" r="3.6"/>
				<circle fill="#00BCD4" cx="220.9" cy="595.7" r="3.6"/>
				<path fill="#00BCD4" d="M293.4,599.8h-44.3c-1.7,0-3-1.4-3-3v0c0-1.7,1.4-3,3-3h44.3c1.7,0,3,1.4,3,3v0
					C296.4,598.4,295,599.8,293.4,599.8z"/>
			</g>
			<g clip-path="url(#SVGID_2_)">
				<path fill="#F47C20" d="M190.9-221.7c-42.2,0-54.2,17.4-54.2,42.1V278c0,24.6,18.9,42.3,42.3,42.3c0,0,76.2,1.5,94.4,1.5
					c18.2,0,86.7-1.5,86.7-1.5c23.4,0,42.3-17.6,42.3-42.3v-404.7l0-52.3c0-24.6-12-42.1-54.2-42.1L190.9-221.7z"/>
				<rect x="148.2" y="-162.9" fill="#FFFFFF" width="242.7" height="427.6"/>
				<path fill="#F6BE1A" d="M289,303.2h-38.9c-5.6,0-10.2-4.6-10.2-10.2v-2.6c0-5.6,4.6-10.2,10.2-10.2H289
					c5.6,0,10.2,4.6,10.2,10.2v2.6C299.2,298.7,294.7,303.2,289,303.2z"/>
			</g>
		</g>
		<g>
			<g>
				<defs>
					<rect id="SVGID_9_" x="751.1" y="34" width="848.9" height="866"/>
				</defs>
				<clipPath id="SVGID_4_">
					<use xlink:href="#SVGID_9_"  overflow="visible"/>
				</clipPath>
				<linearGradient id="SVGID_6_" gradientUnits="userSpaceOnUse" x1="1204.7158" y1="931.7048" x2="1204.7158" y2="705.2887">
					<stop  offset="0" style="stop-color:#000000;stop-opacity:0"/>
					<stop  offset="1" style="stop-color:#000000;stop-opacity:0.95"/>
				</linearGradient>
				<polygon opacity="0.15" clip-path="url(#SVGID_4_)" fill="url(#SVGID_6_)" points="809.4,790.3 1000.3,981.2 1600,981.2 
					1600,671.5 986.8,671.5 				"/>
				<g clip-path="url(#SVGID_4_)">
					<rect x="809.7" y="171.8" fill="#FFFFFF" width="1079.9" height="618.2"/>
				</g>
				<g clip-path="url(#SVGID_4_)">
					<g>
						<g>
							<path fill="#F6BE1A" d="M887.2,398.1c-15,37.4-15.8,80.5,1.2,120.5c34.1,80,126.6,117.2,206.6,83.1
								c40-17.1,69.3-48.7,84.3-86.1l-146.1-58.7L887.2,398.1z"/>
							<path fill="#F47C20" d="M1178.1,395.1c-17.1-40-48.7-69.3-86.1-84.3l-58.7,146.1L1178.1,395.1z"/>
							<path fill="#F47C20" d="M1092.1,310.8c-37.4-15-80.5-15.8-120.5,1.2c-40,17.1-69.3,48.7-84.3,86.1l146.1,58.7L1092.1,310.8z"
								/>
							<path fill="#80DEEA" d="M1033.3,456.9l146.1,58.7c15-37.4,15.8-80.5-1.2-120.5L1033.3,456.9z"/>
						</g>
					</g>
				</g>
				<path clip-path="url(#SVGID_4_)" fill="#BDBDBD" d="M1876.7,89.5H823.8c-7.5,0-13.5,6-13.5,13.5v78.3h1079.9V103
					C1890.2,95.6,1884.2,89.5,1876.7,89.5z"/>
				<circle clip-path="url(#SVGID_4_)" fill="#FFFFFF" cx="865" cy="132.5" r="12.6"/>
				<circle clip-path="url(#SVGID_4_)" fill="#FFFFFF" cx="903.9" cy="132.5" r="12.6"/>
				<circle clip-path="url(#SVGID_4_)" fill="#FFFFFF" cx="941.8" cy="132.5" r="12.6"/>
				<g clip-path="url(#SVGID_4_)">
					<path fill="#BDBDBD" d="M1359.2,503v90.7c0,0.5-0.4,0.8-0.8,0.8h-71.6c-0.5,0-0.8-0.4-0.8-0.8V503H1359.2z"/>
					<path fill="#BDBDBD" d="M1456.6,414.7v179c0,0.5-0.4,0.8-0.8,0.8h-71.6c-0.5,0-0.8-0.4-0.8-0.8v-179H1456.6z"/>
					<path fill="#BDBDBD" d="M1554.1,326.4v267.2c0,0.5-0.4,0.8-0.8,0.8h-71.6c-0.5,0-0.8-0.4-0.8-0.8V326.4H1554.1z"/>
				</g>
			</g>
			<g>
				<g>
					<circle fill="#FFFFFF" cx="1033.3" cy="458.1" r="106.6"/>
				</g>
			</g>
		</g>
		<path fill="#F47C20" d="M588,250.8l21.3-23.9c2-2.3,0.4-5.9-2.7-5.9H564c-3.1,0-4.7,3.6-2.7,5.9l21.4,23.9
			C584.1,252.4,586.6,252.4,588,250.8z"/>
		<path fill="#F6BE1A" d="M695.8,441.5l-23.9-21.3c-2.3-2-5.9-0.4-5.9,2.7v42.7c0,3.1,3.6,4.7,5.9,2.7l23.9-21.4
			C697.4,445.4,697.4,442.9,695.8,441.5z"/>
		<path fill="#80DEEA" d="M506.9,775.4L483,754c-2.3-2-5.9-0.4-5.9,2.7v42.7c0,3.1,3.6,4.7,5.9,2.7l23.9-21.4
			C508.5,779.3,508.5,776.8,506.9,775.4z"/>
		<g>
			<defs>
				<circle id="SVGID_12_" cx="1033.3" cy="458.1" r="86.6"/>
			</defs>
			<clipPath id="SVGID_8_">
				<use xlink:href="#SVGID_12_"  overflow="visible"/>
			</clipPath>
			<path clip-path="url(#SVGID_8_)" fill="#BDBDBD" d="M1033.3,473c20.2,0,36.6-16.4,36.6-36.6c0-20.2-16.4-36.6-36.6-36.6
				s-36.6,16.4-36.6,36.6C996.7,456.5,1013.1,473,1033.3,473z M1033.3,491.3c-24.4,0-73.3,12.2-73.3,36.6v18.3h146.5v-18.3
				C1106.6,503.5,1057.7,491.3,1033.3,491.3z"/>
		</g>
	</g>
</g>
</svg>
